<svg xmlns="http://www.w3.org/2000/svg" viewBox="156.44444266666667 1039.8826844 836.9777682666665 746.6826794" id="svg1" version="1.1" style="max-height: 500px" width="836.9777682666665" height="746.6826794">
  <defs id="defs1"/>
  
    
  
  <g id="g1">
    <g id="group-R5">
      <path transform="matrix(0.13333333,0,0,-0.13333333,0,1954.6667)" style="fill:#ffffff;fill-opacity:1;fill-rule:nonzero;stroke:none" d="M 22000,0 H 0 V 14660 H 22000 V 0" id="path2"/>
      <path transform="matrix(0.13333333,0,0,-0.13333333,0,1954.6667)" style="fill:#4f9edc;fill-opacity:1;fill-rule:nonzero;stroke:none" d="M 6589.18,6069.05 H 4241.59 c -56.37,0 -111.4,17.21 -157.73,49.32 l -478.77,331.84 c -46.33,32.12 -101.35,49.32 -157.72,49.32 H 2075.75 c -152.92,0 -276.88,-123.96 -276.88,-276.87 V 5079.93 h 5067.19 v 712.25 c 0,152.91 -123.96,276.87 -276.88,276.87" id="path3"/>
      <path transform="matrix(0.13333333,0,0,-0.13333333,0,1954.6667)" style="fill:#57c5f2;fill-opacity:1;fill-rule:nonzero;stroke:none" d="M 6663.59,1760 H 2001.34 c -180.38,0 -329.58,140.4 -340.47,320.5 L 1490.8,4892.47 c -11.86,196.12 143.99,361.68 340.47,361.68 h 5002.39 c 196.48,0 352.33,-165.56 340.47,-361.68 L 7004.06,2080.5 C 6993.17,1900.4 6843.98,1760 6663.59,1760" id="path4"/>
      <path transform="matrix(0.13333333,0,0,-0.13333333,0,1954.6667)" style="fill:#040606;fill-opacity:1;fill-rule:nonzero;stroke:none" d="m 13263.4,6069.05 h -2347.6 c -56.4,0 -111.4,17.21 -157.8,49.32 l -478.7,331.84 c -46.4,32.12 -101.4,49.32 -157.7,49.32 H 8749.93 c -152.91,0 -276.88,-123.96 -276.88,-276.87 v -837.35 h 5067.15 v 406.87 c 0,152.91 -123.9,276.87 -276.8,276.87" id="path5"/>
      <path transform="matrix(0.13333333,0,0,-0.13333333,0,1954.6667)" style="fill:#040606;fill-opacity:1;fill-rule:nonzero;stroke:none" d="M 13337.8,1760 H 8675.52 c -180.38,0 -329.58,140.4 -340.47,320.5 l -170.07,2811.97 c -11.86,196.12 143.99,361.68 340.47,361.68 h 5002.35 c 196.5,0 352.4,-165.56 340.5,-361.68 L 13678.2,2080.5 c -10.8,-180.1 -160,-320.5 -340.4,-320.5" id="path6"/>
      <path transform="matrix(0.13333333,0,0,-0.13333333,0,1954.6667)" style="fill:#040606;fill-opacity:1;fill-rule:nonzero;stroke:none" d="M 20375.9,4875.02 20210.6,2142.2 c -8.4,-139.5 -124.5,-248.7 -264.3,-248.7 h -4531 c -139.7,0 -255.8,109.2 -264.2,248.7 l -165.3,2732.82 c -4.5,73.63 20.9,143.74 71.5,197.45 50.5,53.71 119,83.29 192.8,83.29 h 4861.5 c 73.8,0 142.2,-29.58 192.8,-83.29 50.5,-53.71 75.9,-123.82 71.5,-197.45 z m -4888.3,1491.06 h 1333.1 c 41.4,0 81.3,-12.45 115.2,-36.03 l 465.3,-322.53 c 56.4,-39.14 122.5,-59.82 191.3,-59.82 H 19874 c 111.6,0 202.4,-90.76 202.4,-202.32 v -456.16 h -4791.1 v 874.55 c 0,111.55 90.8,202.31 202.3,202.31 z m 4913.9,-1202.13 c -52.9,56.27 -119,94.87 -191.7,113.15 v 468.28 c 0,185.14 -150.6,335.77 -335.8,335.77 h -2281.5 c -41.4,0 -81.3,12.45 -115.2,36.03 l -465.3,322.53 c -56.4,39.14 -122.5,59.82 -191.3,59.82 h -1333.1 c -185.1,0 -335.7,-150.62 -335.7,-335.76 V 5277.1 c -72.8,-18.28 -138.8,-56.88 -191.8,-113.15 -76,-80.78 -114.2,-186.25 -107.5,-296.98 l 165.3,-2732.77 c 12.7,-209.8 187.3,-374.2 397.4,-374.2 h 4531 c 210.2,0 384.8,164.4 397.5,374.2 l 165.3,2732.77 c 6.7,110.73 -31.5,216.2 -107.6,296.98" id="path7"/>
      <path transform="matrix(0.13333333,0,0,-0.13333333,0,1954.6667)" style="fill:#57c5f2;fill-opacity:1;fill-rule:nonzero;stroke:none" d="M 6865.03,11940.1 H 4698.02 c -101.56,0 -199.46,37.9 -274.54,106.3 l -820.54,747.3 c -75.08,68.4 -172.98,106.3 -274.53,106.3 H 1799.9 c -160.86,0 -291.26,-130.4 -291.26,-291.3 V 8769.35 c 0,-160.86 130.4,-291.27 291.26,-291.27 h 5065.13 c 160.86,0 291.27,130.41 291.27,291.27 v 2879.45 c 0,160.9 -130.41,291.3 -291.27,291.3" id="path8"/>
      <path transform="matrix(0.13333333,0,0,-0.13333333,0,1954.6667)" style="fill:#040606;fill-opacity:1;fill-rule:nonzero;stroke:none" d="m 16676.8,12900 h -1528.5 c -160.9,0 -291.3,-130.4 -291.3,-291.3 V 8769.35 c 0,-160.86 130.4,-291.27 291.3,-291.27 h 5065.1 c 160.9,0 291.3,130.41 291.3,291.27 v 2879.45 c 0,160.9 -130.4,291.3 -291.3,291.3 h -2167 c -101.6,0 -199.5,37.9 -274.6,106.3 l -820.5,747.3 c -75.1,68.4 -173,106.3 -274.5,106.3 z m 0,-135.9 c 67.8,0 132.8,-25.2 183,-70.9 l 820.5,-747.3 c 100.4,-91.4 230.4,-141.7 366.1,-141.7 h 2167 c 85.7,0 155.3,-69.7 155.3,-155.4 V 8769.35 c 0,-85.66 -69.6,-155.34 -155.3,-155.34 h -5065.1 c -85.7,0 -155.4,69.68 -155.4,155.34 v 3839.35 c 0,85.7 69.7,155.4 155.4,155.4 h 1528.5" id="path9"/>
      <path transform="matrix(0.13333333,0,0,-0.13333333,0,1954.6667)" style="fill:#040606;fill-opacity:1;fill-rule:nonzero;stroke:none" d="m 13539.2,11940.1 h -2167 c -101.6,0 -199.5,37.9 -274.5,106.3 l -820.6,747.3 c -75.1,68.4 -173,106.3 -274.5,106.3 H 8474.08 c -160.86,0 -291.26,-130.4 -291.26,-291.3 V 8769.35 c 0,-160.86 130.4,-291.27 291.26,-291.27 h 5065.12 c 160.9,0 291.3,130.41 291.3,291.27 v 2879.45 c 0,160.9 -130.4,291.3 -291.3,291.3" id="path10"/>
    </g>
  </g>
</svg>